<?xml version='1.0' encoding='UTF-8' standalone='no'?>
<!-- Created with Fritzing (http://www.fritzing.org/) -->
<svg xmlns="http://www.w3.org/2000/svg"  width="3.40079in" x="0in" version="1.2" y="0in" height="2.15551in" viewBox="0 0 244.857 155.197" baseProfile="tiny">
 <desc >Fritzing footprint generated by brd2svg</desc>
 <g  id="silkscreen">
  <path  fill="none" stroke="white" stroke-width="0.576" d="M0.655637,95.6023L57.9222,95.6023L57.9222,44.7679L16.9165,44.7679L16.9165,0.288L209.219,0.288A35.1451,35.1451,0,0,1,244.569,35.5895L244.569,120.313A34.4364,34.4364,0,0,1,209.926,154.909L18.3305,154.909A17.4285,17.4285,0,0,1,0.655637,137.258L0.655637,95.6023M37.188,145.913a4.212,4.212,0,1,0,8.424,0,4.212,4.212,0,1,0,-8.424,0zM224.388,136.913a4.212,4.212,0,1,0,8.424,0,4.212,4.212,0,1,0,-8.424,0zM224.388,18.1134a4.212,4.212,0,1,0,8.424,0,4.212,4.212,0,1,0,-8.424,0zM37.188,9.1134a4.212,4.212,0,1,0,8.424,0,4.212,4.212,0,1,0,-8.424,0z"/>
  <g >
   <title >element:AD9201</title>
   <g >
    <title >package:SSOP28</title>
    <line  stroke="white" stroke-linecap="round" y1="43.8633" x1="203.817" y2="43.8633" stroke-width="0.576" x2="174.903"/>
    <line  stroke="white" stroke-linecap="round" y1="43.8633" x1="174.903" y2="58.6035" stroke-width="0.576" x2="174.903"/>
    <line  stroke="white" stroke-linecap="round" y1="58.6035" x1="174.903" y2="58.6035" stroke-width="0.576" x2="203.817"/>
    <circle  fill="none" cx="200.16" cy="46.1934" stroke="white" r="1.01823" stroke-width="0.36"/>
   </g>
  </g>
  <g >
   <title >element:CLOCK</title>
   <g >
    <title >package:LTI-SASF54GT</title>
    <line  stroke="white" stroke-linecap="round" y1="22.4646" x1="102.841" y2="22.4646" stroke-width="0.576" x2="109.077"/>
    <line  stroke="white" stroke-linecap="round" y1="28.063" x1="114.676" y2="34.2992" stroke-width="0.576" x2="114.676"/>
    <line  stroke="white" stroke-linecap="round" y1="39.8976" x1="109.077" y2="39.8976" stroke-width="0.576" x2="102.841"/>
    <line  stroke="white" stroke-linecap="round" y1="34.2992" x1="97.2425" y2="28.063" stroke-width="0.576" x2="97.2425"/>
    <circle  fill="none" cx="105.959" cy="31.1811" stroke="white" r="4.8189" stroke-width="0.576"/>
   </g>
  </g>
  <g >
   <title >element:J2</title>
   <g >
    <title >package:H2X8-2.54</title>
    <line  stroke="white" stroke-linecap="round" y1="105.903" x1="215.688" y2="120.303" stroke-width="0.36" x2="215.688"/>
    <line  stroke="white" stroke-linecap="round" y1="120.303" x1="215.688" y2="120.303" stroke-width="0.36" x2="158.088"/>
    <line  stroke="white" stroke-linecap="round" y1="120.303" x1="158.088" y2="105.903" stroke-width="0.36" x2="158.088"/>
    <line  stroke="white" stroke-linecap="round" y1="105.903" x1="158.088" y2="105.903" stroke-width="0.36" x2="215.688"/>
   </g>
  </g>
  <g >
   <title >element:RAW0</title>
   <g >
    <title >package:LTI-SASF54GT</title>
    <line  stroke="white" stroke-linecap="round" y1="103.393" x1="139.408" y2="103.393" stroke-width="0.576" x2="145.644"/>
    <line  stroke="white" stroke-linecap="round" y1="108.992" x1="151.242" y2="115.228" stroke-width="0.576" x2="151.242"/>
    <line  stroke="white" stroke-linecap="round" y1="120.827" x1="145.644" y2="120.827" stroke-width="0.576" x2="139.408"/>
    <line  stroke="white" stroke-linecap="round" y1="115.228" x1="133.809" y2="108.992" stroke-width="0.576" x2="133.809"/>
    <circle  fill="none" cx="142.526" cy="112.11" stroke="white" r="4.8189" stroke-width="0.576"/>
   </g>
  </g>
  <g >
   <title >element:RAW1</title>
   <g >
    <title >package:LTI-SASF54GT</title>
    <line  stroke="white" stroke-linecap="round" y1="102.685" x1="227.991" y2="102.685" stroke-width="0.576" x2="234.227"/>
    <line  stroke="white" stroke-linecap="round" y1="108.284" x1="239.826" y2="114.52" stroke-width="0.576" x2="239.826"/>
    <line  stroke="white" stroke-linecap="round" y1="120.118" x1="234.227" y2="120.118" stroke-width="0.576" x2="227.991"/>
    <line  stroke="white" stroke-linecap="round" y1="114.52" x1="222.392" y2="108.284" stroke-width="0.576" x2="222.392"/>
    <circle  fill="none" cx="231.108" cy="111.401" stroke="white" r="4.8189" stroke-width="0.576"/>
   </g>
  </g>
  <g >
   <title >element:U$2</title>
   <g >
    <title >package:BEAGLE_BONE_BLACK_CAPE</title>
   </g>
  </g>
  <line  fill="none" stroke="white" fill-opacity="1" y1="154.909" x1="0.288" y2="154.909" stroke-width="0.576" x2="0.368504"/>
  <line  fill="none" stroke="white" fill-opacity="1" y1="0.288" x1="0.288" y2="0.288" stroke-width="0.576" x2="0.368504"/>
  <line  fill="none" stroke="white" fill-opacity="1" y1="154.909" x1="0.288" y2="0.288" stroke-width="0.576" x2="0.288"/>
 </g>
 <g  id="copper1">
  <g  id="copper0">
   <circle  fill="none" cx="216" cy="149.513" connectorname="N$4" stroke="#F7BD13" r="0" id="connector333pad" stroke-width="0"/>
   <circle  fill="none" cx="216" cy="149.513" connectorname="N$5" stroke="#F7BD13" r="0" id="connector334pad" stroke-width="0"/>
   <circle  fill="none" cx="216" cy="149.513" connectorname="CLOCK" stroke="#F7BD13" r="0" id="connector331pad" stroke-width="0"/>
   <circle  fill="none" cx="216" cy="149.513" connectorname="N$4" stroke="#F7BD13" r="0" id="connector332pad" stroke-width="0"/>
   <circle  fill="none" cx="208.8" cy="5.51339" connectorname="D3" stroke="#F7BD13" r="1.908" id="connector266pad" stroke-width="0.936"/>
   <circle  fill="none" cx="93.6" cy="5.51339" connectorname="P8.12" stroke="#F7BD13" r="1.908" id="connector234pad" stroke-width="0.936"/>
   <circle  fill="none" cx="158.4" cy="142.313" connectorname="P9.30" stroke="#F7BD13" r="1.908" id="connector298pad" stroke-width="0.936"/>
   <circle  fill="none" cx="238.308" cy="104.201" connectorname="GND" stroke="#F7BD13" r="2.65748" id="connector218pad" stroke-width="1.06299"/>
   <circle  fill="none" cx="151.2" cy="5.51339" connectorname="INPUT0A" stroke="#F7BD13" r="1.908" id="connector250pad" stroke-width="0.936"/>
   <circle  fill="none" cx="100.8" cy="142.313" connectorname="P9.14" stroke="#F7BD13" r="1.908" id="connector282pad" stroke-width="0.936"/>
   <circle  fill="none" cx="216" cy="142.313" connectorname="GND" stroke="#F7BD13" r="1.908" id="connector314pad" stroke-width="0.936"/>
   <circle  fill="none" cx="64.8" cy="5.51339" connectorname="P8.4" stroke="#F7BD13" r="1.908" id="connector226pad" stroke-width="0.936"/>
   <circle  fill="none" cx="122.4" cy="5.51339" connectorname="P8.20" stroke="#F7BD13" r="1.908" id="connector242pad" stroke-width="0.936"/>
   <circle  fill="none" cx="180" cy="5.51339" connectorname="P8.36" stroke="#F7BD13" r="1.908" id="connector258pad" stroke-width="0.936"/>
   <circle  fill="none" cx="72" cy="142.313" connectorname="P9.6" stroke="#F7BD13" r="1.908" id="connector274pad" stroke-width="0.936"/>
   <circle  fill="none" cx="129.6" cy="142.313" connectorname="P9.22" stroke="#F7BD13" r="1.908" id="connector290pad" stroke-width="0.936"/>
   <circle  fill="none" cx="187.2" cy="142.313" connectorname="P9.38" stroke="#F7BD13" r="1.908" id="connector306pad" stroke-width="0.936"/>
   <circle  fill="none" cx="149.726" cy="119.31" connectorname="GND" stroke="#F7BD13" r="2.65748" id="connector214pad" stroke-width="1.06299"/>
   <circle  fill="none" cx="79.2" cy="5.51339" connectorname="P8.8" stroke="#F7BD13" r="1.908" id="connector230pad" stroke-width="0.936"/>
   <circle  fill="none" cx="108" cy="5.51339" connectorname="P8.16" stroke="#F7BD13" r="1.908" id="connector238pad" stroke-width="0.936"/>
   <circle  fill="none" cx="136.8" cy="5.51339" connectorname="P8.24" stroke="#F7BD13" r="1.908" id="connector246pad" stroke-width="0.936"/>
   <circle  fill="none" cx="165.6" cy="5.51339" connectorname="P8.32" stroke="#F7BD13" r="1.908" id="connector254pad" stroke-width="0.936"/>
   <circle  fill="none" cx="194.4" cy="5.51339" connectorname="D7" stroke="#F7BD13" r="1.908" id="connector262pad" stroke-width="0.936"/>
   <circle  fill="none" cx="57.6" cy="142.313" connectorname="GND" stroke="#F7BD13" r="1.908" id="connector270pad" stroke-width="0.936"/>
   <circle  fill="none" cx="86.4" cy="142.313" connectorname="P9.10" stroke="#F7BD13" r="1.908" id="connector278pad" stroke-width="0.936"/>
   <circle  fill="none" cx="115.2" cy="142.313" connectorname="P9.18" stroke="#F7BD13" r="1.908" id="connector286pad" stroke-width="0.936"/>
   <circle  fill="none" cx="144" cy="142.313" connectorname="P9.26" stroke="#F7BD13" r="1.908" id="connector294pad" stroke-width="0.936"/>
   <circle  fill="none" cx="172.8" cy="142.313" connectorname="P9.34" stroke="#F7BD13" r="1.908" id="connector302pad" stroke-width="0.936"/>
   <circle  fill="none" cx="201.6" cy="142.313" connectorname="P9.42" stroke="#F7BD13" r="1.908" id="connector310pad" stroke-width="0.936"/>
   <circle  fill="none" cx="135.326" cy="104.91" connectorname="GND" stroke="#F7BD13" r="2.65748" id="connector212pad" stroke-width="1.06299"/>
   <circle  fill="none" cx="231.108" cy="111.401" connectorname="1" stroke="#F7BD13" r="2.65748" id="connector216pad" stroke-width="1.06299"/>
   <circle  fill="none" cx="223.908" cy="118.601" connectorname="GND" stroke="#F7BD13" r="2.65748" id="connector220pad" stroke-width="1.06299"/>
   <circle  fill="none" cx="57.6" cy="5.51339" connectorname="GND" stroke="#F7BD13" r="1.908" id="connector224pad" stroke-width="0.936"/>
   <circle  fill="none" cx="72" cy="5.51339" connectorname="P8.6" stroke="#F7BD13" r="1.908" id="connector228pad" stroke-width="0.936"/>
   <circle  fill="none" cx="86.4" cy="5.51339" connectorname="P8.10" stroke="#F7BD13" r="1.908" id="connector232pad" stroke-width="0.936"/>
   <circle  fill="none" cx="100.8" cy="5.51339" connectorname="P8.14" stroke="#F7BD13" r="1.908" id="connector236pad" stroke-width="0.936"/>
   <circle  fill="none" cx="115.2" cy="5.51339" connectorname="P8.18" stroke="#F7BD13" r="1.908" id="connector240pad" stroke-width="0.936"/>
   <circle  fill="none" cx="129.6" cy="5.51339" connectorname="P8.22" stroke="#F7BD13" r="1.908" id="connector244pad" stroke-width="0.936"/>
   <circle  fill="none" cx="144" cy="5.51339" connectorname="P8.26" stroke="#F7BD13" r="1.908" id="connector248pad" stroke-width="0.936"/>
   <circle  fill="none" cx="158.4" cy="5.51339" connectorname="CLOCK" stroke="#F7BD13" r="1.908" id="connector252pad" stroke-width="0.936"/>
   <circle  fill="none" cx="172.8" cy="5.51339" connectorname="P8.34" stroke="#F7BD13" r="1.908" id="connector256pad" stroke-width="0.936"/>
   <circle  fill="none" cx="187.2" cy="5.51339" connectorname="P8.38" stroke="#F7BD13" r="1.908" id="connector260pad" stroke-width="0.936"/>
   <circle  fill="none" cx="201.6" cy="5.51339" connectorname="D5" stroke="#F7BD13" r="1.908" id="connector264pad" stroke-width="0.936"/>
   <circle  fill="none" cx="216" cy="5.51339" connectorname="D1" stroke="#F7BD13" r="1.908" id="connector268pad" stroke-width="0.936"/>
   <circle  fill="none" cx="64.8" cy="142.313" connectorname="P9.4" stroke="#F7BD13" r="1.908" id="connector272pad" stroke-width="0.936"/>
   <circle  fill="none" cx="79.2" cy="142.313" connectorname="OTHERSYS5V" stroke="#F7BD13" r="1.908" id="connector276pad" stroke-width="0.936"/>
   <circle  fill="none" cx="93.6" cy="142.313" connectorname="P9.12" stroke="#F7BD13" r="1.908" id="connector280pad" stroke-width="0.936"/>
   <circle  fill="none" cx="108" cy="142.313" connectorname="P9.16" stroke="#F7BD13" r="1.908" id="connector284pad" stroke-width="0.936"/>
   <circle  fill="none" cx="122.4" cy="142.313" connectorname="P9.20" stroke="#F7BD13" r="1.908" id="connector288pad" stroke-width="0.936"/>
   <circle  fill="none" cx="136.8" cy="142.313" connectorname="P9.24" stroke="#F7BD13" r="1.908" id="connector292pad" stroke-width="0.936"/>
   <circle  fill="none" cx="151.2" cy="142.313" connectorname="P9.28" stroke="#F7BD13" r="1.908" id="connector296pad" stroke-width="0.936"/>
   <circle  fill="none" cx="165.6" cy="142.313" connectorname="P9.32" stroke="#F7BD13" r="1.908" id="connector300pad" stroke-width="0.936"/>
   <circle  fill="none" cx="180" cy="142.313" connectorname="P9.36" stroke="#F7BD13" r="1.908" id="connector304pad" stroke-width="0.936"/>
   <circle  fill="none" cx="194.4" cy="142.313" connectorname="P9.40" stroke="#F7BD13" r="1.908" id="connector308pad" stroke-width="0.936"/>
   <circle  fill="none" cx="208.8" cy="142.313" connectorname="P9.44" stroke="#F7BD13" r="1.908" id="connector312pad" stroke-width="0.936"/>
   <circle  fill="none" cx="142.526" cy="112.11" connectorname="1" stroke="#F7BD13" r="2.65748" id="connector211pad" stroke-width="1.06299"/>
   <circle  fill="none" cx="149.726" cy="104.91" connectorname="GND" stroke="#F7BD13" r="2.65748" id="connector213pad" stroke-width="1.06299"/>
   <circle  fill="none" cx="135.326" cy="119.31" connectorname="GND" stroke="#F7BD13" r="2.65748" id="connector215pad" stroke-width="1.06299"/>
   <circle  fill="none" cx="223.908" cy="104.201" connectorname="GND" stroke="#F7BD13" r="2.65748" id="connector217pad" stroke-width="1.06299"/>
   <circle  fill="none" cx="105.959" cy="31.1811" connectorname="CLOCK" stroke="#F7BD13" r="2.65748" id="connector113pad" stroke-width="1.06299"/>
   <circle  fill="none" cx="238.308" cy="118.601" connectorname="GND" stroke="#F7BD13" r="2.65748" id="connector219pad" stroke-width="1.06299"/>
   <circle  fill="none" cx="98.7588" cy="23.9811" connectorname="GND" stroke="#F7BD13" r="2.65748" id="connector114pad" stroke-width="1.06299"/>
   <circle  fill="none" cx="113.159" cy="23.9811" connectorname="GND" stroke="#F7BD13" r="2.65748" id="connector115pad" stroke-width="1.06299"/>
   <circle  fill="none" cx="57.6" cy="12.7134" connectorname="GND" stroke="#F7BD13" r="1.908" id="connector223pad" stroke-width="0.936"/>
   <rect  width="3.816" x="55.692" y="10.8054" fill="none" height="3.816" stroke="#F7BD13" stroke-width="0.936"/>
   <circle  fill="none" cx="113.159" cy="38.3811" connectorname="GND" stroke="#F7BD13" r="2.65748" id="connector116pad" stroke-width="1.06299"/>
   <circle  fill="none" cx="64.8" cy="12.7134" connectorname="P8.3" stroke="#F7BD13" r="1.908" id="connector225pad" stroke-width="0.936"/>
   <circle  fill="none" cx="98.7588" cy="38.3811" connectorname="GND" stroke="#F7BD13" r="2.65748" id="connector117pad" stroke-width="1.06299"/>
   <circle  fill="none" cx="72" cy="12.7134" connectorname="P8.5" stroke="#F7BD13" r="1.908" id="connector227pad" stroke-width="0.936"/>
   <circle  fill="none" cx="79.2" cy="12.7134" connectorname="P8.7" stroke="#F7BD13" r="1.908" id="connector229pad" stroke-width="0.936"/>
   <circle  fill="none" cx="86.4" cy="12.7134" connectorname="P8.9" stroke="#F7BD13" r="1.908" id="connector231pad" stroke-width="0.936"/>
   <circle  fill="none" cx="93.6" cy="12.7134" connectorname="P8.11" stroke="#F7BD13" r="1.908" id="connector233pad" stroke-width="0.936"/>
   <circle  fill="none" cx="100.8" cy="12.7134" connectorname="P8.13" stroke="#F7BD13" r="1.908" id="connector235pad" stroke-width="0.936"/>
   <circle  fill="none" cx="108" cy="12.7134" connectorname="P8.15" stroke="#F7BD13" r="1.908" id="connector237pad" stroke-width="0.936"/>
   <circle  fill="none" cx="115.2" cy="12.7134" connectorname="P8.17" stroke="#F7BD13" r="1.908" id="connector239pad" stroke-width="0.936"/>
   <circle  fill="none" cx="86.6268" cy="23.1534" connectorname="1" stroke="#F7BD13" r="1.8" id="connector124pad" stroke-width="1.08"/>
   <rect  width="3.6" x="84.8268" y="21.3534" fill="none" height="3.6" stroke="#F7BD13" stroke-width="1.08"/>
   <circle  fill="none" cx="122.4" cy="12.7134" connectorname="P8.19" stroke="#F7BD13" r="1.908" id="connector241pad" stroke-width="0.936"/>
   <circle  fill="none" cx="86.6268" cy="30.3534" connectorname="CLOCK" stroke="#F7BD13" r="1.8" id="connector125pad" stroke-width="1.08"/>
   <circle  fill="none" cx="129.6" cy="12.7134" connectorname="P8.21" stroke="#F7BD13" r="1.908" id="connector243pad" stroke-width="0.936"/>
   <circle  fill="none" cx="86.6268" cy="37.5534" connectorname="3" stroke="#F7BD13" r="1.8" id="connector126pad" stroke-width="1.08"/>
   <circle  fill="none" cx="136.8" cy="12.7134" connectorname="P8.23" stroke="#F7BD13" r="1.908" id="connector245pad" stroke-width="0.936"/>
   <circle  fill="none" cx="212.088" cy="109.503" connectorname="1" stroke="#F7BD13" r="1.8" id="connector127pad" stroke-width="1.08"/>
   <rect  width="3.6" x="210.288" y="107.703" fill="none" height="3.6" stroke="#F7BD13" stroke-width="1.08"/>
   <circle  fill="none" cx="144" cy="12.7134" connectorname="P8.25" stroke="#F7BD13" r="1.908" id="connector247pad" stroke-width="0.936"/>
   <circle  fill="none" cx="204.888" cy="109.503" connectorname="N$29" stroke="#F7BD13" r="1.8" id="connector128pad" stroke-width="1.08"/>
   <circle  fill="none" cx="151.2" cy="12.7134" connectorname="D8" stroke="#F7BD13" r="1.908" id="connector249pad" stroke-width="0.936"/>
   <circle  fill="none" cx="197.688" cy="109.503" connectorname="3" stroke="#F7BD13" r="1.8" id="connector129pad" stroke-width="1.08"/>
   <circle  fill="none" cx="158.4" cy="12.7134" connectorname="D9" stroke="#F7BD13" r="1.908" id="connector251pad" stroke-width="0.936"/>
   <circle  fill="none" cx="190.488" cy="109.503" connectorname="N$44" stroke="#F7BD13" r="1.8" id="connector130pad" stroke-width="1.08"/>
   <circle  fill="none" cx="165.6" cy="12.7134" connectorname="P8.31" stroke="#F7BD13" r="1.908" id="connector253pad" stroke-width="0.936"/>
   <circle  fill="none" cx="183.288" cy="109.503" connectorname="5" stroke="#F7BD13" r="1.8" id="connector131pad" stroke-width="1.08"/>
   <circle  fill="none" cx="172.8" cy="12.7134" connectorname="P8.33" stroke="#F7BD13" r="1.908" id="connector255pad" stroke-width="0.936"/>
   <circle  fill="none" cx="176.088" cy="109.503" connectorname="6" stroke="#F7BD13" r="1.8" id="connector132pad" stroke-width="1.08"/>
   <circle  fill="none" cx="180" cy="12.7134" connectorname="P8.35" stroke="#F7BD13" r="1.908" id="connector257pad" stroke-width="0.936"/>
   <circle  fill="none" cx="168.888" cy="109.503" connectorname="7" stroke="#F7BD13" r="1.8" id="connector133pad" stroke-width="1.08"/>
   <circle  fill="none" cx="187.2" cy="12.7134" connectorname="P8.37" stroke="#F7BD13" r="1.908" id="connector259pad" stroke-width="0.936"/>
   <circle  fill="none" cx="161.688" cy="109.503" connectorname="8" stroke="#F7BD13" r="1.8" id="connector134pad" stroke-width="1.08"/>
   <circle  fill="none" cx="194.4" cy="12.7134" connectorname="D6" stroke="#F7BD13" r="1.908" id="connector261pad" stroke-width="0.936"/>
   <circle  fill="none" cx="161.688" cy="116.703" connectorname="GND" stroke="#F7BD13" r="1.8" id="connector135pad" stroke-width="1.08"/>
   <circle  fill="none" cx="201.6" cy="12.7134" connectorname="D4" stroke="#F7BD13" r="1.908" id="connector263pad" stroke-width="0.936"/>
   <circle  fill="none" cx="168.888" cy="116.703" connectorname="GND" stroke="#F7BD13" r="1.8" id="connector136pad" stroke-width="1.08"/>
   <circle  fill="none" cx="208.8" cy="12.7134" connectorname="D2" stroke="#F7BD13" r="1.908" id="connector265pad" stroke-width="0.936"/>
   <circle  fill="none" cx="176.088" cy="116.703" connectorname="GND" stroke="#F7BD13" r="1.8" id="connector137pad" stroke-width="1.08"/>
   <circle  fill="none" cx="216" cy="12.7134" connectorname="D0" stroke="#F7BD13" r="1.908" id="connector267pad" stroke-width="0.936"/>
   <circle  fill="none" cx="183.288" cy="116.703" connectorname="GND" stroke="#F7BD13" r="1.8" id="connector138pad" stroke-width="1.08"/>
   <circle  fill="none" cx="57.6" cy="149.513" connectorname="GND" stroke="#F7BD13" r="1.908" id="connector269pad" stroke-width="0.936"/>
   <rect  width="3.816" x="55.692" y="147.605" fill="none" height="3.816" stroke="#F7BD13" stroke-width="0.936"/>
   <circle  fill="none" cx="190.488" cy="116.703" connectorname="13" stroke="#F7BD13" r="1.8" id="connector139pad" stroke-width="1.08"/>
   <circle  fill="none" cx="64.8" cy="149.513" connectorname="P9.3" stroke="#F7BD13" r="1.908" id="connector271pad" stroke-width="0.936"/>
   <circle  fill="none" cx="197.688" cy="116.703" connectorname="14" stroke="#F7BD13" r="1.8" id="connector140pad" stroke-width="1.08"/>
   <circle  fill="none" cx="72" cy="149.513" connectorname="P9.5" stroke="#F7BD13" r="1.908" id="connector273pad" stroke-width="0.936"/>
   <circle  fill="none" cx="204.888" cy="116.703" connectorname="15" stroke="#F7BD13" r="1.8" id="connector141pad" stroke-width="1.08"/>
   <circle  fill="none" cx="79.2" cy="149.513" connectorname="OTHERSYS5V" stroke="#F7BD13" r="1.908" id="connector275pad" stroke-width="0.936"/>
   <circle  fill="none" cx="212.088" cy="116.703" connectorname="16" stroke="#F7BD13" r="1.8" id="connector142pad" stroke-width="1.08"/>
   <circle  fill="none" cx="86.4" cy="149.513" connectorname="P9.9" stroke="#F7BD13" r="1.908" id="connector277pad" stroke-width="0.936"/>
   <circle  fill="none" cx="134.305" cy="52.526" connectorname="AVCC" stroke="#F7BD13" r="1.8" id="connector143pad" stroke-width="1.08"/>
   <rect  width="3.6" x="132.505" y="50.726" fill="none" height="3.6" stroke="#F7BD13" stroke-width="1.08"/>
   <circle  fill="none" cx="93.6" cy="149.513" connectorname="P9.11" stroke="#F7BD13" r="1.908" id="connector279pad" stroke-width="0.936"/>
   <circle  fill="none" cx="134.305" cy="59.726" connectorname="GND" stroke="#F7BD13" r="1.8" id="connector144pad" stroke-width="1.08"/>
   <circle  fill="none" cx="100.8" cy="149.513" connectorname="P9.13" stroke="#F7BD13" r="1.908" id="connector281pad" stroke-width="0.936"/>
   <circle  fill="none" cx="108.567" cy="49.663" connectorname="CLOCK" stroke="#F7BD13" r="1.8" id="connector145pad" stroke-width="1.08"/>
   <rect  width="3.6" x="106.767" y="47.863" fill="none" height="3.6" stroke="#F7BD13" stroke-width="1.08"/>
   <circle  fill="none" cx="108" cy="149.513" connectorname="P9.15" stroke="#F7BD13" r="1.908" id="connector283pad" stroke-width="0.936"/>
   <circle  fill="none" cx="101.367" cy="49.663" connectorname="2" stroke="#F7BD13" r="1.8" id="connector146pad" stroke-width="1.08"/>
   <circle  fill="none" cx="115.2" cy="149.513" connectorname="P9.17" stroke="#F7BD13" r="1.908" id="connector285pad" stroke-width="0.936"/>
   <circle  fill="none" cx="232.895" cy="92.4948" connectorname="1" stroke="#F7BD13" r="1.8" id="connector147pad" stroke-width="1.08"/>
   <rect  width="3.6" x="231.095" y="90.6948" fill="none" height="3.6" stroke="#F7BD13" stroke-width="1.08"/>
   <circle  fill="none" cx="122.4" cy="149.513" connectorname="P9.19" stroke="#F7BD13" r="1.908" id="connector287pad" stroke-width="0.936"/>
   <circle  fill="none" cx="240.095" cy="92.4948" connectorname="2" stroke="#F7BD13" r="1.8" id="connector148pad" stroke-width="1.08"/>
   <circle  fill="none" cx="129.6" cy="149.513" connectorname="P9.21" stroke="#F7BD13" r="1.908" id="connector289pad" stroke-width="0.936"/>
   <circle  fill="none" cx="142.101" cy="89.2346" connectorname="1" stroke="#F7BD13" r="1.8" id="connector149pad" stroke-width="1.08"/>
   <rect  width="3.6" x="140.301" y="87.4346" fill="none" height="3.6" stroke="#F7BD13" stroke-width="1.08"/>
   <circle  fill="none" cx="136.8" cy="149.513" connectorname="P9.23" stroke="#F7BD13" r="1.908" id="connector291pad" stroke-width="0.936"/>
   <circle  fill="none" cx="134.901" cy="89.2346" connectorname="2" stroke="#F7BD13" r="1.8" id="connector150pad" stroke-width="1.08"/>
   <circle  fill="none" cx="144" cy="149.513" connectorname="DISABLE" stroke="#F7BD13" r="1.908" id="connector293pad" stroke-width="0.936"/>
   <circle  fill="none" cx="151.2" cy="149.513" connectorname="P9.27" stroke="#F7BD13" r="1.908" id="connector295pad" stroke-width="0.936"/>
   <circle  fill="none" cx="158.4" cy="149.513" connectorname="P9.29" stroke="#F7BD13" r="1.908" id="connector297pad" stroke-width="0.936"/>
   <circle  fill="none" cx="165.6" cy="149.513" connectorname="P9.31" stroke="#F7BD13" r="1.908" id="connector299pad" stroke-width="0.936"/>
   <circle  fill="none" cx="172.8" cy="149.513" connectorname="P9.33" stroke="#F7BD13" r="1.908" id="connector301pad" stroke-width="0.936"/>
   <circle  fill="none" cx="180" cy="149.513" connectorname="P9.35" stroke="#F7BD13" r="1.908" id="connector303pad" stroke-width="0.936"/>
   <circle  fill="none" cx="187.2" cy="149.513" connectorname="P9.37" stroke="#F7BD13" r="1.908" id="connector305pad" stroke-width="0.936"/>
   <circle  fill="none" cx="194.4" cy="149.513" connectorname="P9.39" stroke="#F7BD13" r="1.908" id="connector307pad" stroke-width="0.936"/>
   <circle  fill="none" cx="201.6" cy="149.513" connectorname="P9.41" stroke="#F7BD13" r="1.908" id="connector309pad" stroke-width="0.936"/>
   <circle  fill="none" cx="208.8" cy="149.513" connectorname="GND" stroke="#F7BD13" r="1.908" id="connector311pad" stroke-width="0.936"/>
   <circle  fill="none" cx="216" cy="149.513" connectorname="GND" stroke="#F7BD13" r="1.908" id="connector313pad" stroke-width="0.936"/>
  </g>
 </g>
</svg>
