<?xml version='1.0' encoding='UTF-8' standalone='no'?>
<!-- Created with Fritzing (http://www.fritzing.org/) -->
<svg xmlns="http://www.w3.org/2000/svg"  width="1.5in" x="0in" version="1.2" y="0in" height="2.3in" viewBox="0 0 108 165.6" baseProfile="tiny">
 <desc >Fritzing schematic generated by brd2svg</desc>
 <g  id="schematic">
  <rect  width="78.75" x="14.4" y="0.45" fill="none" height="150.75" stroke="#000000" stroke-linejoin="round" stroke-linecap="round" stroke-width="0.9"/>
  <text  x="54" y="75.7001" font-family="'Droid Sans'" fill="#000000" text-anchor="middle" stroke="none" id="label" font-size="3.5">PRUDAQ</text>
  <text  x="54" y="79.2" font-family="'Droid Sans'" fill="#000000" text-anchor="middle" stroke="none" id="label" font-size="3.5">Test</text>
  <rect  width="0" x="50.4" y="151.2" fill="none" height="0" stroke="none" id="connector331pin" stroke-width="0" connectorName="CLOCK"/>
  <rect  width="0" x="50.4" y="151.2" fill="none" height="0" stroke="none" id="connector331terminal" stroke-width="0"/>
  <rect  width="0" x="50.4" y="151.2" fill="none" height="0" stroke="none" id="connector332pin" stroke-width="0" connectorName="N$4"/>
  <rect  width="0" x="50.4" y="151.2" fill="none" height="0" stroke="none" id="connector332terminal" stroke-width="0"/>
  <rect  width="0" x="50.4" y="151.2" fill="none" height="0" stroke="none" id="connector333pin" stroke-width="0" connectorName="N$4"/>
  <rect  width="0" x="50.4" y="151.2" fill="none" height="0" stroke="none" id="connector333terminal" stroke-width="0"/>
  <rect  width="0" x="50.4" y="151.2" fill="none" height="0" stroke="none" id="connector334pin" stroke-width="0" connectorName="N$5"/>
  <rect  width="0" x="50.4" y="151.2" fill="none" height="0" stroke="none" id="connector334terminal" stroke-width="0"/>
  <line  fill="none" stroke="#787878" stroke-linejoin="round" stroke-linecap="round" y1="7.2" stroke-width="0.699998" x1="0.349999" y2="7.2" x2="14.4"/>
  <rect  width="14.4" x="0" y="6.85" fill="none" height="0.699998" id="connector127pin" stroke-width="0" connectorName="1"/>
  <rect  width="0" x="0" y="6.85" fill="none" height="0.699998" id="connector127terminal" stroke-width="0"/>
  <text  x="15.8" y="7.89998" font-family="'Droid Sans'" fill="#8c8c8c" text-anchor="start" stroke="none" id="label127" font-size="3.5">1</text>
  <line  fill="none" stroke="#787878" stroke-linejoin="round" stroke-linecap="round" y1="14.4" stroke-width="0.699998" x1="0.349999" y2="14.4" x2="14.4"/>
  <rect  width="14.4" x="0" y="14.05" fill="none" height="0.699998" id="connector149pin" stroke-width="0" connectorName="1"/>
  <rect  width="0" x="0" y="14.05" fill="none" height="0.699998" id="connector149terminal" stroke-width="0"/>
  <text  x="15.8" y="15.1" font-family="'Droid Sans'" fill="#8c8c8c" text-anchor="start" stroke="none" id="label149" font-size="3.5">1</text>
  <line  fill="none" stroke="#787878" stroke-linejoin="round" stroke-linecap="round" y1="21.6" stroke-width="0.699998" x1="0.349999" y2="21.6" x2="14.4"/>
  <rect  width="14.4" x="0" y="21.25" fill="none" height="0.699998" id="connector124pin" stroke-width="0" connectorName="1"/>
  <rect  width="0" x="0" y="21.25" fill="none" height="0.699998" id="connector124terminal" stroke-width="0"/>
  <text  x="15.8" y="22.3" font-family="'Droid Sans'" fill="#8c8c8c" text-anchor="start" stroke="none" id="label124" font-size="3.5">1</text>
  <line  fill="none" stroke="#787878" stroke-linejoin="round" stroke-linecap="round" y1="28.8" stroke-width="0.699998" x1="0.349999" y2="28.8" x2="14.4"/>
  <rect  width="14.4" x="0" y="28.45" fill="none" height="0.699998" id="connector147pin" stroke-width="0" connectorName="1"/>
  <rect  width="0" x="0" y="28.45" fill="none" height="0.699998" id="connector147terminal" stroke-width="0"/>
  <text  x="15.8" y="29.5" font-family="'Droid Sans'" fill="#8c8c8c" text-anchor="start" stroke="none" id="label147" font-size="3.5">1</text>
  <line  fill="none" stroke="#787878" stroke-linejoin="round" stroke-linecap="round" y1="36" stroke-width="0.699998" x1="0.349999" y2="36" x2="14.4"/>
  <rect  width="14.4" x="0" y="35.65" fill="none" height="0.699998" id="connector146pin" stroke-width="0" connectorName="2"/>
  <rect  width="0" x="0" y="35.65" fill="none" height="0.699998" id="connector146terminal" stroke-width="0"/>
  <text  x="15.8" y="36.7" font-family="'Droid Sans'" fill="#8c8c8c" text-anchor="start" stroke="none" id="label146" font-size="3.5">2</text>
  <line  fill="none" stroke="#787878" stroke-linejoin="round" stroke-linecap="round" y1="43.2" stroke-width="0.699998" x1="0.349999" y2="43.2" x2="14.4"/>
  <rect  width="14.4" x="0" y="42.85" fill="none" height="0.699998" id="connector148pin" stroke-width="0" connectorName="2"/>
  <rect  width="0" x="0" y="42.85" fill="none" height="0.699998" id="connector148terminal" stroke-width="0"/>
  <text  x="15.8" y="43.9" font-family="'Droid Sans'" fill="#8c8c8c" text-anchor="start" stroke="none" id="label148" font-size="3.5">2</text>
  <line  fill="none" stroke="#787878" stroke-linejoin="round" stroke-linecap="round" y1="50.4" stroke-width="0.699998" x1="0.349999" y2="50.4" x2="14.4"/>
  <rect  width="14.4" x="0" y="50.05" fill="none" height="0.699998" id="connector150pin" stroke-width="0" connectorName="2"/>
  <rect  width="0" x="0" y="50.05" fill="none" height="0.699998" id="connector150terminal" stroke-width="0"/>
  <text  x="15.8" y="51.1" font-family="'Droid Sans'" fill="#8c8c8c" text-anchor="start" stroke="none" id="label150" font-size="3.5">2</text>
  <line  fill="none" stroke="#787878" stroke-linejoin="round" stroke-linecap="round" y1="57.6" stroke-width="0.699998" x1="0.349999" y2="57.6" x2="14.4"/>
  <rect  width="14.4" x="0" y="57.25" fill="none" height="0.699998" id="connector126pin" stroke-width="0" connectorName="3"/>
  <rect  width="0" x="0" y="57.25" fill="none" height="0.699998" id="connector126terminal" stroke-width="0"/>
  <text  x="15.8" y="58.3" font-family="'Droid Sans'" fill="#8c8c8c" text-anchor="start" stroke="none" id="label126" font-size="3.5">3</text>
  <line  fill="none" stroke="#787878" stroke-linejoin="round" stroke-linecap="round" y1="64.8" stroke-width="0.699998" x1="0.349999" y2="64.8" x2="14.4"/>
  <rect  width="14.4" x="0" y="64.45" fill="none" height="0.699998" id="connector129pin" stroke-width="0" connectorName="3"/>
  <rect  width="0" x="0" y="64.45" fill="none" height="0.699998" id="connector129terminal" stroke-width="0"/>
  <text  x="15.8" y="65.5" font-family="'Droid Sans'" fill="#8c8c8c" text-anchor="start" stroke="none" id="label129" font-size="3.5">3</text>
  <line  fill="none" stroke="#787878" stroke-linejoin="round" stroke-linecap="round" y1="72" stroke-width="0.699998" x1="0.349999" y2="72" x2="14.4"/>
  <rect  width="14.4" x="0" y="71.65" fill="none" height="0.699998" id="connector131pin" stroke-width="0" connectorName="5"/>
  <rect  width="0" x="0" y="71.65" fill="none" height="0.699998" id="connector131terminal" stroke-width="0"/>
  <text  x="15.8" y="72.6998" font-family="'Droid Sans'" fill="#8c8c8c" text-anchor="start" stroke="none" id="label131" font-size="3.5">5</text>
  <line  fill="none" stroke="#787878" stroke-linejoin="round" stroke-linecap="round" y1="79.2" stroke-width="0.699998" x1="0.349999" y2="79.2" x2="14.4"/>
  <rect  width="14.4" x="0" y="78.8501" fill="none" height="0.699998" id="connector132pin" stroke-width="0" connectorName="6"/>
  <rect  width="0" x="0" y="78.8501" fill="none" height="0.699998" id="connector132terminal" stroke-width="0"/>
  <text  x="15.8" y="79.8998" font-family="'Droid Sans'" fill="#8c8c8c" text-anchor="start" stroke="none" id="label132" font-size="3.5">6</text>
  <line  fill="none" stroke="#787878" stroke-linejoin="round" stroke-linecap="round" y1="86.4" stroke-width="0.699998" x1="0.349999" y2="86.4" x2="14.4"/>
  <rect  width="14.4" x="0" y="86.0501" fill="none" height="0.699998" id="connector133pin" stroke-width="0" connectorName="7"/>
  <rect  width="0" x="0" y="86.0501" fill="none" height="0.699998" id="connector133terminal" stroke-width="0"/>
  <text  x="15.8" y="87.0998" font-family="'Droid Sans'" fill="#8c8c8c" text-anchor="start" stroke="none" id="label133" font-size="3.5">7</text>
  <line  fill="none" stroke="#787878" stroke-linejoin="round" stroke-linecap="round" y1="93.6" stroke-width="0.699998" x1="0.349999" y2="93.6" x2="14.4"/>
  <rect  width="14.4" x="0" y="93.2501" fill="none" height="0.699998" id="connector134pin" stroke-width="0" connectorName="8"/>
  <rect  width="0" x="0" y="93.2501" fill="none" height="0.699998" id="connector134terminal" stroke-width="0"/>
  <text  x="15.8" y="94.2998" font-family="'Droid Sans'" fill="#8c8c8c" text-anchor="start" stroke="none" id="label134" font-size="3.5">8</text>
  <line  fill="none" stroke="#787878" stroke-linejoin="round" stroke-linecap="round" y1="100.8" stroke-width="0.699998" x1="0.349999" y2="100.8" x2="14.4"/>
  <rect  width="14.4" x="0" y="100.45" fill="none" height="0.699998" id="connector139pin" stroke-width="0" connectorName="13"/>
  <rect  width="0" x="0" y="100.45" fill="none" height="0.699998" id="connector139terminal" stroke-width="0"/>
  <text  x="15.8" y="101.5" font-family="'Droid Sans'" fill="#8c8c8c" text-anchor="start" stroke="none" id="label139" font-size="3.5">13</text>
  <line  fill="none" stroke="#787878" stroke-linejoin="round" stroke-linecap="round" y1="108" stroke-width="0.699998" x1="0.349999" y2="108" x2="14.4"/>
  <rect  width="14.4" x="0" y="107.65" fill="none" height="0.699998" id="connector143pin" stroke-width="0" connectorName="AVCC"/>
  <rect  width="0" x="0" y="107.65" fill="none" height="0.699998" id="connector143terminal" stroke-width="0"/>
  <text  x="15.8" y="108.7" font-family="'Droid Sans'" fill="#8c8c8c" text-anchor="start" stroke="none" id="label143" font-size="3.5">AVCC</text>
  <line  fill="none" stroke="#787878" stroke-linejoin="round" stroke-linecap="round" y1="115.2" stroke-width="0.699998" x1="0.349999" y2="115.2" x2="14.4"/>
  <rect  width="14.4" x="0" y="114.85" fill="none" height="0.699998" id="connector113pin" stroke-width="0" connectorName="CLOCK"/>
  <rect  width="0" x="0" y="114.85" fill="none" height="0.699998" id="connector113terminal" stroke-width="0"/>
  <text  x="15.8" y="115.9" font-family="'Droid Sans'" fill="#8c8c8c" text-anchor="start" stroke="none" id="label113" font-size="3.5">CLOCK</text>
  <line  fill="none" stroke="#787878" stroke-linejoin="round" stroke-linecap="round" y1="7.2" stroke-width="0.699998" x1="93.2501" y2="7.2" x2="107.65"/>
  <rect  width="14.4" x="93.6" y="6.85" fill="none" connectorname="P9.29" height="0.699998" id="connector297pin" stroke-width="0"/>
  <rect  width="0" x="108" y="6.85" fill="none" height="0.699998" id="connector297terminal" stroke-width="0"/>
  <text  x="92.2003" y="7.89998" font-family="'Droid Sans'" fill="#8c8c8c" text-anchor="end" stroke="none" id="label297" font-size="3.5">P9.29</text>
  <line  fill="none" stroke="#787878" stroke-linejoin="round" stroke-linecap="round" y1="14.4" stroke-width="0.699998" x1="93.2501" y2="14.4" x2="107.65"/>
  <rect  width="14.4" x="93.6" y="14.05" fill="none" connectorname="P9.28" height="0.699998" id="connector296pin" stroke-width="0"/>
  <rect  width="0" x="108" y="14.05" fill="none" height="0.699998" id="connector296terminal" stroke-width="0"/>
  <text  x="92.2003" y="15.1" font-family="'Droid Sans'" fill="#8c8c8c" text-anchor="end" stroke="none" id="label296" font-size="3.5">P9.28</text>
  <line  fill="none" stroke="#787878" stroke-linejoin="round" stroke-linecap="round" y1="21.6" stroke-width="0.699998" x1="93.2501" y2="21.6" x2="107.65"/>
  <rect  width="14.4" x="93.6" y="21.25" fill="none" connectorname="P9.27" height="0.699998" id="connector295pin" stroke-width="0"/>
  <rect  width="0" x="108" y="21.25" fill="none" height="0.699998" id="connector295terminal" stroke-width="0"/>
  <text  x="92.2003" y="22.3" font-family="'Droid Sans'" fill="#8c8c8c" text-anchor="end" stroke="none" id="label295" font-size="3.5">P9.27</text>
  <line  fill="none" stroke="#787878" stroke-linejoin="round" stroke-linecap="round" y1="28.8" stroke-width="0.699998" x1="93.2501" y2="28.8" x2="107.65"/>
  <rect  width="14.4" x="93.6" y="28.45" fill="none" connectorname="P9.26" height="0.699998" id="connector294pin" stroke-width="0"/>
  <rect  width="0" x="108" y="28.45" fill="none" height="0.699998" id="connector294terminal" stroke-width="0"/>
  <text  x="92.2003" y="29.5" font-family="'Droid Sans'" fill="#8c8c8c" text-anchor="end" stroke="none" id="label294" font-size="3.5">P9.26</text>
  <line  fill="none" stroke="#787878" stroke-linejoin="round" stroke-linecap="round" y1="36" stroke-width="0.699998" x1="93.2501" y2="36" x2="107.65"/>
  <rect  width="14.4" x="93.6" y="35.65" fill="none" connectorname="OTHERSYS5V" height="0.699998" id="connector275pin" stroke-width="0"/>
  <rect  width="0" x="108" y="35.65" fill="none" height="0.699998" id="connector275terminal" stroke-width="0"/>
  <text  x="92.2003" y="36.7" font-family="'Droid Sans'" fill="#8c8c8c" text-anchor="end" stroke="none" id="label275" font-size="3.5">OTHERSYS5V</text>
  <line  fill="none" stroke="#787878" stroke-linejoin="round" stroke-linecap="round" y1="43.2" stroke-width="0.699998" x1="93.2501" y2="43.2" x2="107.65"/>
  <rect  width="14.4" x="93.6" y="42.85" fill="none" connectorname="N$44" height="0.699998" id="connector130pin" stroke-width="0"/>
  <rect  width="0" x="108" y="42.85" fill="none" height="0.699998" id="connector130terminal" stroke-width="0"/>
  <text  x="92.2003" y="43.9" font-family="'Droid Sans'" fill="#8c8c8c" text-anchor="end" stroke="none" id="label130" font-size="3.5">N$44</text>
  <line  fill="none" stroke="#787878" stroke-linejoin="round" stroke-linecap="round" y1="50.4" stroke-width="0.699998" x1="93.2501" y2="50.4" x2="107.65"/>
  <rect  width="14.4" x="93.6" y="50.05" fill="none" connectorname="N$29" height="0.699998" id="connector128pin" stroke-width="0"/>
  <rect  width="0" x="108" y="50.05" fill="none" height="0.699998" id="connector128terminal" stroke-width="0"/>
  <text  x="92.2003" y="51.1" font-family="'Droid Sans'" fill="#8c8c8c" text-anchor="end" stroke="none" id="label128" font-size="3.5">N$29</text>
  <line  fill="none" stroke="#787878" stroke-linejoin="round" stroke-linecap="round" y1="57.6" stroke-width="0.699998" x1="93.2501" y2="57.6" x2="107.65"/>
  <rect  width="14.4" x="93.6" y="57.25" fill="none" connectorname="INPUT0A" height="0.699998" id="connector250pin" stroke-width="0"/>
  <rect  width="0" x="108" y="57.25" fill="none" height="0.699998" id="connector250terminal" stroke-width="0"/>
  <text  x="92.2003" y="58.3" font-family="'Droid Sans'" fill="#8c8c8c" text-anchor="end" stroke="none" id="label250" font-size="3.5">INPUT0A</text>
  <line  fill="none" stroke="#787878" stroke-linejoin="round" stroke-linecap="round" y1="64.8" stroke-width="0.699998" x1="93.2501" y2="64.8" x2="107.65"/>
  <rect  width="14.4" x="93.6" y="64.45" fill="none" connectorname="DISABLE" height="0.699998" id="connector293pin" stroke-width="0"/>
  <rect  width="0" x="108" y="64.45" fill="none" height="0.699998" id="connector293terminal" stroke-width="0"/>
  <text  x="92.2003" y="65.5" font-family="'Droid Sans'" fill="#8c8c8c" text-anchor="end" stroke="none" id="label293" font-size="3.5">DISABLE</text>
  <line  fill="none" stroke="#787878" stroke-linejoin="round" stroke-linecap="round" y1="72" stroke-width="0.699998" x1="93.2501" y2="72" x2="107.65"/>
  <rect  width="14.4" x="93.6" y="71.65" fill="none" connectorname="D9" height="0.699998" id="connector251pin" stroke-width="0"/>
  <rect  width="0" x="108" y="71.65" fill="none" height="0.699998" id="connector251terminal" stroke-width="0"/>
  <text  x="92.2003" y="72.6998" font-family="'Droid Sans'" fill="#8c8c8c" text-anchor="end" stroke="none" id="label251" font-size="3.5">D9</text>
  <line  fill="none" stroke="#787878" stroke-linejoin="round" stroke-linecap="round" y1="79.2" stroke-width="0.699998" x1="93.2501" y2="79.2" x2="107.65"/>
  <rect  width="14.4" x="93.6" y="78.8501" fill="none" connectorname="D8" height="0.699998" id="connector249pin" stroke-width="0"/>
  <rect  width="0" x="108" y="78.8501" fill="none" height="0.699998" id="connector249terminal" stroke-width="0"/>
  <text  x="92.2003" y="79.8998" font-family="'Droid Sans'" fill="#8c8c8c" text-anchor="end" stroke="none" id="label249" font-size="3.5">D8</text>
  <line  fill="none" stroke="#787878" stroke-linejoin="round" stroke-linecap="round" y1="86.4" stroke-width="0.699998" x1="93.2501" y2="86.4" x2="107.65"/>
  <rect  width="14.4" x="93.6" y="86.0501" fill="none" connectorname="D7" height="0.699998" id="connector262pin" stroke-width="0"/>
  <rect  width="0" x="108" y="86.0501" fill="none" height="0.699998" id="connector262terminal" stroke-width="0"/>
  <text  x="92.2003" y="87.0998" font-family="'Droid Sans'" fill="#8c8c8c" text-anchor="end" stroke="none" id="label262" font-size="3.5">D7</text>
  <line  fill="none" stroke="#787878" stroke-linejoin="round" stroke-linecap="round" y1="93.6" stroke-width="0.699998" x1="93.2501" y2="93.6" x2="107.65"/>
  <rect  width="14.4" x="93.6" y="93.2501" fill="none" connectorname="D6" height="0.699998" id="connector261pin" stroke-width="0"/>
  <rect  width="0" x="108" y="93.2501" fill="none" height="0.699998" id="connector261terminal" stroke-width="0"/>
  <text  x="92.2003" y="94.2998" font-family="'Droid Sans'" fill="#8c8c8c" text-anchor="end" stroke="none" id="label261" font-size="3.5">D6</text>
  <line  fill="none" stroke="#787878" stroke-linejoin="round" stroke-linecap="round" y1="100.8" stroke-width="0.699998" x1="93.2501" y2="100.8" x2="107.65"/>
  <rect  width="14.4" x="93.6" y="100.45" fill="none" connectorname="D5" height="0.699998" id="connector264pin" stroke-width="0"/>
  <rect  width="0" x="108" y="100.45" fill="none" height="0.699998" id="connector264terminal" stroke-width="0"/>
  <text  x="92.2003" y="101.5" font-family="'Droid Sans'" fill="#8c8c8c" text-anchor="end" stroke="none" id="label264" font-size="3.5">D5</text>
  <line  fill="none" stroke="#787878" stroke-linejoin="round" stroke-linecap="round" y1="108" stroke-width="0.699998" x1="93.2501" y2="108" x2="107.65"/>
  <rect  width="14.4" x="93.6" y="107.65" fill="none" connectorname="D4" height="0.699998" id="connector263pin" stroke-width="0"/>
  <rect  width="0" x="108" y="107.65" fill="none" height="0.699998" id="connector263terminal" stroke-width="0"/>
  <text  x="92.2003" y="108.7" font-family="'Droid Sans'" fill="#8c8c8c" text-anchor="end" stroke="none" id="label263" font-size="3.5">D4</text>
  <line  fill="none" stroke="#787878" stroke-linejoin="round" stroke-linecap="round" y1="115.2" stroke-width="0.699998" x1="93.2501" y2="115.2" x2="107.65"/>
  <rect  width="14.4" x="93.6" y="114.85" fill="none" connectorname="D3" height="0.699998" id="connector266pin" stroke-width="0"/>
  <rect  width="0" x="108" y="114.85" fill="none" height="0.699998" id="connector266terminal" stroke-width="0"/>
  <text  x="92.2003" y="115.9" font-family="'Droid Sans'" fill="#8c8c8c" text-anchor="end" stroke="none" id="label266" font-size="3.5">D3</text>
  <line  fill="none" stroke="#787878" stroke-linejoin="round" stroke-linecap="round" y1="122.4" stroke-width="0.699998" x1="93.2501" y2="122.4" x2="107.65"/>
  <rect  width="14.4" x="93.6" y="122.05" fill="none" connectorname="D2" height="0.699998" id="connector265pin" stroke-width="0"/>
  <rect  width="0" x="108" y="122.05" fill="none" height="0.699998" id="connector265terminal" stroke-width="0"/>
  <text  x="92.2003" y="123.1" font-family="'Droid Sans'" fill="#8c8c8c" text-anchor="end" stroke="none" id="label265" font-size="3.5">D2</text>
  <line  fill="none" stroke="#787878" stroke-linejoin="round" stroke-linecap="round" y1="129.6" stroke-width="0.699998" x1="93.2501" y2="129.6" x2="107.65"/>
  <rect  width="14.4" x="93.6" y="129.25" fill="none" connectorname="D1" height="0.699998" id="connector268pin" stroke-width="0"/>
  <rect  width="0" x="108" y="129.25" fill="none" height="0.699998" id="connector268terminal" stroke-width="0"/>
  <text  x="92.2003" y="130.3" font-family="'Droid Sans'" fill="#8c8c8c" text-anchor="end" stroke="none" id="label268" font-size="3.5">D1</text>
  <line  fill="none" stroke="#787878" stroke-linejoin="round" stroke-linecap="round" y1="136.8" stroke-width="0.699998" x1="93.2501" y2="136.8" x2="107.65"/>
  <rect  width="14.4" x="93.6" y="136.45" fill="none" connectorname="D0" height="0.699998" id="connector267pin" stroke-width="0"/>
  <rect  width="0" x="108" y="136.45" fill="none" height="0.699998" id="connector267terminal" stroke-width="0"/>
  <text  x="92.2003" y="137.5" font-family="'Droid Sans'" fill="#8c8c8c" text-anchor="end" stroke="none" id="label267" font-size="3.5">D0</text>
  <line  fill="none" stroke="#787878" stroke-linejoin="round" stroke-linecap="round" y1="151.2" stroke-width="0.699998" x1="50.4" y2="165.25" x2="50.4"/>
  <rect  width="0.699998" x="50.05" y="151.2" fill="none" connectorname="GND" height="14.4" id="connector114pin" stroke-width="0"/>
  <rect  width="0.699998" x="50.05" y="165.6" fill="none" height="0" id="connector114terminal" stroke-width="0"/>
  <g  transform="matrix(1, 0, 0, 1, 51.8, 149.6)">
   <g  transform="rotate(270)">
    <text  x="0" y="0" font-family="'Droid Sans'" fill="#8c8c8c" text-anchor="start" stroke="none" id="label114" font-size="3.5">GND</text>
   </g>
  </g>
  <rect  width="0.699998" x="50.05" y="151.2" fill="none" connectorname="GND" height="14.4" id="connector115pin" stroke-width="0"/>
  <rect  width="0.699998" x="50.05" y="165.6" fill="none" height="0" id="connector115terminal" stroke-width="0"/>
  <rect  width="0.699998" x="50.05" y="151.2" fill="none" connectorname="GND" height="14.4" id="connector116pin" stroke-width="0"/>
  <rect  width="0.699998" x="50.05" y="165.6" fill="none" height="0" id="connector116terminal" stroke-width="0"/>
  <rect  width="0.699998" x="50.05" y="151.2" fill="none" connectorname="GND" height="14.4" id="connector117pin" stroke-width="0"/>
  <rect  width="0.699998" x="50.05" y="165.6" fill="none" height="0" id="connector117terminal" stroke-width="0"/>
  <rect  width="0.699998" x="50.05" y="151.2" fill="none" connectorname="GND" height="14.4" id="connector135pin" stroke-width="0"/>
  <rect  width="0.699998" x="50.05" y="165.6" fill="none" height="0" id="connector135terminal" stroke-width="0"/>
  <rect  width="0.699998" x="50.05" y="151.2" fill="none" connectorname="GND" height="14.4" id="connector136pin" stroke-width="0"/>
  <rect  width="0.699998" x="50.05" y="165.6" fill="none" height="0" id="connector136terminal" stroke-width="0"/>
  <rect  width="0.699998" x="50.05" y="151.2" fill="none" connectorname="GND" height="14.4" id="connector137pin" stroke-width="0"/>
  <rect  width="0.699998" x="50.05" y="165.6" fill="none" height="0" id="connector137terminal" stroke-width="0"/>
  <rect  width="0.699998" x="50.05" y="151.2" fill="none" connectorname="GND" height="14.4" id="connector138pin" stroke-width="0"/>
  <rect  width="0.699998" x="50.05" y="165.6" fill="none" height="0" id="connector138terminal" stroke-width="0"/>
  <rect  width="0.699998" x="50.05" y="151.2" fill="none" connectorname="GND" height="14.4" id="connector144pin" stroke-width="0"/>
  <rect  width="0.699998" x="50.05" y="165.6" fill="none" height="0" id="connector144terminal" stroke-width="0"/>
  <rect  width="0.699998" x="50.05" y="151.2" fill="none" connectorname="GND" height="14.4" id="connector212pin" stroke-width="0"/>
  <rect  width="0.699998" x="50.05" y="165.6" fill="none" height="0" id="connector212terminal" stroke-width="0"/>
  <rect  width="0.699998" x="50.05" y="151.2" fill="none" connectorname="GND" height="14.4" id="connector213pin" stroke-width="0"/>
  <rect  width="0.699998" x="50.05" y="165.6" fill="none" height="0" id="connector213terminal" stroke-width="0"/>
  <rect  width="0.699998" x="50.05" y="151.2" fill="none" connectorname="GND" height="14.4" id="connector214pin" stroke-width="0"/>
  <rect  width="0.699998" x="50.05" y="165.6" fill="none" height="0" id="connector214terminal" stroke-width="0"/>
  <rect  width="0.699998" x="50.05" y="151.2" fill="none" connectorname="GND" height="14.4" id="connector215pin" stroke-width="0"/>
  <rect  width="0.699998" x="50.05" y="165.6" fill="none" height="0" id="connector215terminal" stroke-width="0"/>
  <rect  width="0.699998" x="50.05" y="151.2" fill="none" connectorname="GND" height="14.4" id="connector217pin" stroke-width="0"/>
  <rect  width="0.699998" x="50.05" y="165.6" fill="none" height="0" id="connector217terminal" stroke-width="0"/>
  <rect  width="0.699998" x="50.05" y="151.2" fill="none" connectorname="GND" height="14.4" id="connector218pin" stroke-width="0"/>
  <rect  width="0.699998" x="50.05" y="165.6" fill="none" height="0" id="connector218terminal" stroke-width="0"/>
  <rect  width="0.699998" x="50.05" y="151.2" fill="none" connectorname="GND" height="14.4" id="connector219pin" stroke-width="0"/>
  <rect  width="0.699998" x="50.05" y="165.6" fill="none" height="0" id="connector219terminal" stroke-width="0"/>
  <rect  width="0.699998" x="50.05" y="151.2" fill="none" connectorname="GND" height="14.4" id="connector220pin" stroke-width="0"/>
  <rect  width="0.699998" x="50.05" y="165.6" fill="none" height="0" id="connector220terminal" stroke-width="0"/>
  <rect  width="0.699998" x="50.05" y="151.2" fill="none" connectorname="GND" height="14.4" id="connector223pin" stroke-width="0"/>
  <rect  width="0.699998" x="50.05" y="165.6" fill="none" height="0" id="connector223terminal" stroke-width="0"/>
  <rect  width="0.699998" x="50.05" y="151.2" fill="none" connectorname="GND" height="14.4" id="connector224pin" stroke-width="0"/>
  <rect  width="0.699998" x="50.05" y="165.6" fill="none" height="0" id="connector224terminal" stroke-width="0"/>
  <rect  width="0.699998" x="50.05" y="151.2" fill="none" connectorname="GND" height="14.4" id="connector269pin" stroke-width="0"/>
  <rect  width="0.699998" x="50.05" y="165.6" fill="none" height="0" id="connector269terminal" stroke-width="0"/>
  <rect  width="0.699998" x="50.05" y="151.2" fill="none" connectorname="GND" height="14.4" id="connector270pin" stroke-width="0"/>
  <rect  width="0.699998" x="50.05" y="165.6" fill="none" height="0" id="connector270terminal" stroke-width="0"/>
  <rect  width="0.699998" x="50.05" y="151.2" fill="none" connectorname="GND" height="14.4" id="connector311pin" stroke-width="0"/>
  <rect  width="0.699998" x="50.05" y="165.6" fill="none" height="0" id="connector311terminal" stroke-width="0"/>
  <rect  width="0.699998" x="50.05" y="151.2" fill="none" connectorname="GND" height="14.4" id="connector313pin" stroke-width="0"/>
  <rect  width="0.699998" x="50.05" y="165.6" fill="none" height="0" id="connector313terminal" stroke-width="0"/>
  <rect  width="0.699998" x="50.05" y="151.2" fill="none" connectorname="GND" height="14.4" id="connector314pin" stroke-width="0"/>
  <rect  width="0.699998" x="50.05" y="165.6" fill="none" height="0" id="connector314terminal" stroke-width="0"/>
  <rect  width="14.4" x="0" y="28.45" fill="none" height="0.699998" id="connector216pin" stroke-width="0" connectorName="1"/>
  <rect  width="0" x="0" y="28.45" fill="none" height="0.699998" id="connector216terminal" stroke-width="0"/>
  <rect  width="14.4" x="0" y="14.05" fill="none" height="0.699998" id="connector211pin" stroke-width="0" connectorName="1"/>
  <rect  width="0" x="0" y="14.05" fill="none" height="0.699998" id="connector211terminal" stroke-width="0"/>
  <rect  width="14.4" x="0" y="100.45" fill="none" height="0.699998" id="connector140pin" stroke-width="0" connectorName="13"/>
  <rect  width="0" x="0" y="100.45" fill="none" height="0.699998" id="connector140terminal" stroke-width="0"/>
  <rect  width="14.4" x="0" y="100.45" fill="none" height="0.699998" id="connector141pin" stroke-width="0" connectorName="13"/>
  <rect  width="0" x="0" y="100.45" fill="none" height="0.699998" id="connector141terminal" stroke-width="0"/>
  <rect  width="14.4" x="0" y="100.45" fill="none" height="0.699998" id="connector142pin" stroke-width="0" connectorName="13"/>
  <rect  width="0" x="0" y="100.45" fill="none" height="0.699998" id="connector142terminal" stroke-width="0"/>
  <rect  width="14.4" x="0" y="114.85" fill="none" height="0.699998" id="connector252pin" stroke-width="0" connectorName="CLOCK"/>
  <rect  width="0" x="0" y="114.85" fill="none" height="0.699998" id="connector252terminal" stroke-width="0"/>
  <rect  width="14.4" x="0" y="114.85" fill="none" height="0.699998" id="connector125pin" stroke-width="0" connectorName="CLOCK"/>
  <rect  width="0" x="0" y="114.85" fill="none" height="0.699998" id="connector125terminal" stroke-width="0"/>
  <rect  width="14.4" x="0" y="57.25" fill="none" height="0.699998" id="connector299pin" stroke-width="0" connectorName="3"/>
  <rect  width="0" x="0" y="57.25" fill="none" height="0.699998" id="connector299terminal" stroke-width="0"/>
  <rect  width="14.4" x="93.6" y="28.45" fill="none" connectorname="P9.26" height="0.699998" id="connector298pin" stroke-width="0"/>
  <rect  width="0" x="108" y="28.45" fill="none" height="0.699998" id="connector298terminal" stroke-width="0"/>
  <rect  width="14.4" x="93.6" y="35.65" fill="none" connectorname="OTHERSYS5V" height="0.699998" id="connector276pin" stroke-width="0"/>
  <rect  width="0" x="108" y="35.65" fill="none" height="0.699998" id="connector276terminal" stroke-width="0"/>
  <rect  width="14.4" x="0" y="114.85" fill="none" height="0.699998" id="connector145pin" stroke-width="0" connectorName="CLOCK"/>
  <rect  width="0" x="0" y="114.85" fill="none" height="0.699998" id="connector145terminal" stroke-width="0"/>
 </g>
</svg>
